# AST/ASF file generated using VICON BodyLanguage
# -----------------------------------------------
:version 1.10
:name VICON
:units
  mass 1.0
  length 0.45
  angle deg
:documentation
   .ast/.asf automatically generated from VICON data using
   VICON BodyBuilder and BodyLanguage model FoxedUp or BRILLIANT.MOD
:root
   order TX TY TZ RX RY RZ
   axis XYZ
   position 0 0 0  
   orientation 0 0 0 
:bonedata
  begin
     id 1 
     name lhipjoint
     direction 0.570549 -0.739093 0.358072 
     length 2.41801 
     axis 0 0 0  XYZ
  end
  begin
     id 2 
     name lfemur
     direction 0.34202 -0.939693 0  
     length 7.44434  
     axis 0 0 20  XYZ
    dof rx ry rz
    limits (-160.0 20.0)
           (-70.0 70.0)
           (-60.0 70.0)
  end
  begin
     id 3 
     name ltibia
     direction 0.34202 -0.939693 0   
     length 7.60047   
     axis 0 0 20   XYZ
    dof rx
    limits (-10.0 170.0)
  end
  begin
     id 4 
     name lfoot
     direction 0.0909041 -0.249757 0.964032   
     length 2.03437   
     axis -90 7.62852e-016 20   XYZ
    dof rx rz
    limits (-45.0 90.0)
           (-70.0 20.0)
  end
  begin
     id 5 
     name ltoes
     direction 1.53547e-011 -4.2174e-011 1   
     length 1.02054   
     axis -90 7.62852e-016 20   XYZ
    dof rx
    limits (-90.0 20.0)
  end
  begin
     id 6 
     name rhipjoint
     direction -0.558096 -0.746754 0.361784   
     length 2.3932  
     axis 0 0 0  XYZ 
  end
  begin
     id 7 
     name rfemur
     direction -0.34202 -0.939693 0   
     length 7.3886   
     axis 0 0 -20   XYZ
    dof rx ry rz
    limits (-160.0 20.0)
           (-70.0 70.0)
           (-70.0 60.0)
  end
  begin
     id 8 
     name rtibia
     direction -0.34202 -0.939693 0   
     length 7.4839   
     axis 0 0 -20   XYZ
    dof rx
    limits (-10.0 170.0)
 end
 begin
     id 9 
     name rfoot
     direction -0.114619 -0.314914 0.942174   
     length 2.25127  
     axis -90 -7.62852e-016 -20   XYZ
    dof rx rz
    limits (-45.0 90.0)
           (-20.0 70.0)
  end
  begin
     id 10 
     name rtoes
     direction -1.53518e-011 -4.21881e-011 1   
     length 1.11821   
     axis -90 -7.62852e-016 -20   XYZ
    dof rx
    limits (-90.0 20.0)
  end
  begin
     id 11 
     name lowerback
     direction -0.00902269 0.996426 -0.0839821   
     length 2.25052   
     axis 0 0 0   XYZ
    dof rx ry rz
    limits (-20.0 45.0)
           (-30.0 30.0)
           (-30.0 30.0)
  end
  begin
     id 12 
     name upperback
     direction 0.0370973 0.999169 -0.0168941   
     length 2.24876   
     axis 0 0 0   XYZ
    dof rx ry rz
    limits (-20.0 45.0)
           (-30.0 30.0)
           (-30.0 30.0)
  end
  begin
     id 13 
     name thorax
     direction 0.0402726 0.998931 0.0227027   
     length 2.26408   
     axis 0 0 0   XYZ
    dof rx ry rz
    limits (-20.0 45.0)
           (-30.0 30.0)
           (-30.0 30.0)
  end
  begin
     id 14 
     name lowerneck
     direction -0.0733697 0.98508 0.155675   
     length 1.58204   
     axis 0 0 0   XYZ
    dof rx ry rz
    limits (-20.0 45.0)
           (-30.0 30.0)
           (-30.0 30.0)
  end
  begin
     id 15 
     name upperneck
     direction 0.0426554 0.993501 -0.105526   
     length 1.61222   
     axis 0 0 0   XYZ
    dof rx ry rz
    limits (-20.0 45.0)
           (-30.0 30.0)
           (-30.0 30.0)
  end
  begin
     id 16
     name head
     direction 0.020792 0.998384 -0.0528868  
     length 1.61527  
     axis 0 0 0   XYZ
    dof rx ry rz
    limits (-20.0 45.0)
           (-30.0 30.0)
           (-30.0 30.0)
  end
  begin
     id 17 
     name lclavicle
     direction 0.967109 0.155462 -0.201325  
     length 3.59357  
     axis 0 0 0   XYZ
    dof ry rz
    limits (-20.0 10.0)
           (0.0 20.0)
  end
  begin
     id 18 
     name lhumerus
     direction 1 -4.48968e-011 2.38195e-027   
     length 5.38154   
     axis 180 -30 -90   XYZ
    dof rx ry rz
    limits (-60.0 90.0)
           (-90.0 90.0)
           (-90.0 90.0)
  end
  begin
     id 19
     name lradius
     direction 1 -4.48961e-011 4.85371e-027   
     length 3.33312   
     axis 180 -30 -90   XYZ
    dof rx
    limits (-10.0 170.0)
  end
  begin
     id 20
     name lwrist
     direction 1 -4.48961e-011 4.76515e-027   
     length 1.66656   
     axis -3.27502e-015 90 90   XYZ
    dof ry
    limits (-180.0 0.0)
 end
  begin
     id 21 
     name lhand
     direction 1 -4.48951e-011 9.53074e-027   
     length 0.710789   
     axis -6.08098e-015 90 90   XYZ
    dof rx rz
    limits (-90.0 90.0)
           (-45.0 45.0)
  end
  begin
     id 22 
     name lfingers
     direction 1 -4.48953e-011 1.90613e-026   
     length 0.573057   
     axis -1.21619e-014 90 90   XYZ
    dof rx
    limits (0.0 90.0)
  end
  begin
     id 23
     name lthumb
     direction 0.707107 -6.34973e-011 0.707107   
     length 0.822798   
     axis -90 45 -9.86923e-015   XYZ
    dof rx rz
    limits (-45.0 45.0)
           (-45.0 45.0)
  end
  begin
     id 24 
     name rclavicle
     direction -0.9585 0.265289 -0.104398   
     length 3.42039  
     axis 0 0 0   XYZ 
    dof ry rz
    limits (-10.0 20.0)
           (-20.0 0.0)
  end
  begin
     id 25 
     name rhumerus
     direction -1 -4.48977e-011 2.21478e-027  
     length 5.16954   
     axis 180 30 90   XYZ
    dof rx ry rz
    limits (-90.0 60.0)
           (-90.0 90.0)
           (-90.0 90.0)
  end
  begin
     id 26 
     name rradius
     direction -1 -4.48967e-011 5.63677e-027   
     length 3.38287   
     axis 180 30 90   XYZ
    dof rx
    limits (-10.0 170.0)
  end
  begin
     id 27 
     name rwrist
     direction -1 -4.48967e-011 4.76501e-027   
     length 1.69144   
     axis -3.27502e-015 -90 -90   XYZ
    dof ry
    limits (-180.0 0.0)
  end
  begin
     id 28
     name rhand
     direction -1 -4.48902e-011 9.53292e-027   
     length 0.817967   
     axis -6.08098e-015 -90 -90   XYZ
    dof rx rz
    limits (-90.0 90.0)
           (-45.0 45.0)
  end
  begin
     id 29
     name rfingers
     direction -1 -4.49012e-011 1.90561e-026   
     length 0.659466   
     axis -1.21619e-014 -90 -90   XYZ
    dof rx
    limits (0.0 90.0)
  end
  begin
     id 30
     name rthumb
     direction -0.707107 -6.34944e-011 0.707107   
     length 0.946865   
     axis -90 -45 9.86923e-015   XYZ
    dof rx rz
    limits (-45.0 45.0)
           (-45.0 45.0)
  end
:hierarchy
  begin
    root lhipjoint rhipjoint lowerback
    lhipjoint lfemur
    lfemur ltibia
    ltibia lfoot
    lfoot ltoes
    rhipjoint rfemur
    rfemur rtibia
    rtibia rfoot
    rfoot rtoes
    lowerback upperback
    upperback thorax
    thorax lowerneck lclavicle rclavicle
    lowerneck upperneck
    upperneck head
    lclavicle lhumerus
    lhumerus lradius
    lradius lwrist
    lwrist lhand lthumb
    lhand lfingers
    rclavicle rhumerus
    rhumerus rradius
    rradius rwrist
    rwrist rhand rthumb
    rhand rfingers
  end

#!OML:ASF F:\twosubjects\two\wednesday\Session 1\Justin1.ASF
:FULLY-SPECIFIED
:DEGREES
47
root -2.59201 17.9349 17.883 -169.479 6.4426 -177.319
lowerback 3.03494 0.361372 0.711042
upperback -0.160025 0.62123 2.48748
thorax -1.88653 0.343593 2.12569
lowerneck -17.7237 -3.29819 -11.0383
upperneck 12.8944 -1.99305 2.4374
head 7.00191 -1.25951 2.35359
rclavicle -9.64106e-015 1.11319e-014
rhumerus -42.2851 -32.6275 -61.1677
rradius 36.706
rwrist -18.0471
rhand -13.4465 20.0969
rfingers 7.12502
rthumb 12.6628 -9.49922
lclavicle -9.64106e-015 1.11319e-014
lhumerus -34.7588 19.7471 80.8268
lradius 24.9734
lwrist -14.2129
lhand -1.9493 35.7131
lfingers 7.12502
lthumb 23.722 64.2691
rfemur 12.7412 4.02758 18.7456
rtibia 14.4682
rfoot 6.70371 8.36288
rtoes -0.116622
lfemur -33.8641 2.92243 -18.7572
ltibia 27.4197
lfoot -0.842768 -1.04948
ltoes 0.155076
48
root -2.63881 17.9447 17.734 -169.767 6.70639 -177.691
lowerback 3.19777 0.296952 0.192006
upperback -0.184908 0.511641 2.45001
thorax -2.00389 0.291344 2.38352
lowerneck -17.5474 -3.14218 -10.9182
upperneck 13.1186 -1.78059 2.18861
head 7.02897 -1.17771 2.27904
rclavicle -1.68967e-014 1.43125e-014
rhumerus -42.7705 -32.9569 -60.4633
rradius 37.3404
rwrist -19.3251
rhand -15.3652 19.8853
rfingers 7.12502
rthumb 10.8125 -9.8164
lclavicle -1.68967e-014 1.43125e-014
lhumerus -35.0333 19.8141 80.6957
lradius 25.3188
lwrist -13.8278
lhand -1.95699 35.594
lfingers 7.12502
lthumb 23.7146 64.1509
rfemur 11.2534 4.44121 18.036
rtibia 18.0214
rfoot 8.32285 8.35787
rtoes 1.58389
lfemur -33.0246 3.13374 -19.3712
ltibia 27.3541
lfoot -1.00876 -1.48666
ltoes 3.22301
49
root -2.68304 17.9487 17.5932 -169.832 6.5548 -178.393
lowerback 3.30912 0.125251 -0.563785
upperback -0.393894 0.241719 2.3321
thorax -2.27276 0.161784 2.70143
lowerneck -17.5292 -3.01397 -11.0577
upperneck 13.5259 -1.56963 2.23132
head 7.14796 -1.08921 2.34194
rclavicle -4.67144e-015 -1.15295e-014
rhumerus -43.495 -33.273 -59.5428
rradius 37.9261
rwrist -20.6325
rhand -15.6745 20.4928
rfingers 7.12502
rthumb 10.5142 -9.22422
lclavicle -4.67144e-015 -1.15295e-014
lhumerus -35.4023 19.7193 80.598
lradius 25.816
lwrist -13.4169
lhand -1.53917 35.6181
lfingers 7.12502
lthumb 24.1153 64.1225
rfemur 9.58644 4.44534 17.0298
rtibia 21.4103
rfoot 9.97441 8.1325
rtoes 4.77966
lfemur -32.5012 3.10861 -20.3941
ltibia 27.225
lfoot -1.23156 -2.20998
ltoes 5.43119
50
root -2.72982 17.9649 17.4483 -169.838 6.52824 -178.731
lowerback 3.29516 0.0737685 -0.900886
upperback -0.411424 0.152139 2.26273
thorax -2.27904 0.118621 2.82466
lowerneck -17.6537 -2.93167 -11.0709
upperneck 13.3778 -1.43995 2.21426
head 7.1112 -1.02481 2.35166
rclavicle 8.94531e-016 -5.96354e-015
rhumerus -44.0578 -34.0262 -58.5515
rradius 38.598
rwrist -21.7451
rhand -15.9387 20.8363
rfingers 7.12502
rthumb 10.2593 -8.89355
lclavicle 8.94531e-016 -5.96354e-015
lhumerus -35.3261 19.373 80.7663
lradius 26.3674
lwrist -13.0686
lhand -1.28635 35.9059
lfingers 7.12502
lthumb 24.3577 64.3779
rfemur 7.78316 4.40573 16.356
rtibia 24.7538
rfoot 11.5422 8.24443
rtoes 4.67274
lfemur -31.9381 3.06421 -21.0046
ltibia 27.0696
lfoot -1.61693 -2.60856
ltoes 6.23698
51
root -2.77353 17.9892 17.3071 -169.811 6.93949 -178.659
lowerback 3.30347 0.205076 -0.9871
upperback -0.397887 0.324932 2.28911
thorax -2.28015 0.206368 2.89147
lowerneck -17.7628 -2.925 -10.9845
upperneck 13.3028 -1.41898 2.09659
head 7.10205 -1.01821 2.30036
rclavicle -5.06901e-015 3.57812e-015
rhumerus -44.5942 -34.9359 -57.5055
rradius 39.4123
rwrist -22.5274
rhand -16.3232 20.523
rfingers 7.12502
rthumb 9.88832 -9.22475
lclavicle -5.06901e-015 3.57812e-015
lhumerus -35.1159 18.8113 81.0254
lradius 26.8314
lwrist -12.5363
lhand -1.55941 35.9194
lfingers 7.12502
lthumb 24.0959 64.4264
rfemur 5.88833 4.86799 16.0773
rtibia 28.0278
rfoot 12.9779 8.37536
rtoes 1.38922
lfemur -31.273 3.09253 -21.0798
ltibia 26.8538
lfoot -2.02544 -2.36984
ltoes 7.3388
52
root -2.81444 18.0067 17.1766 -169.747 7.26023 -178.755
lowerback 3.32368 0.316882 -1.24962
upperback -0.47428 0.461253 2.27257
thorax -2.38008 0.278424 3.01531
lowerneck -17.7556 -2.92154 -11.0643
upperneck 13.3795 -1.40485 2.16275
head 7.12628 -1.01167 2.33708
rclavicle -1.98785e-016 -1.39149e-014
rhumerus -45.1654 -35.7821 -56.4204
rradius 40.2056
rwrist -23.0835
rhand -16.6459 20.2042
rfingers 7.12502
rthumb 9.57705 -9.55816
lclavicle -1.98785e-016 -1.39149e-014
lhumerus -34.9897 18.226 81.1574
lradius 27.2309
lwrist -12.0784
lhand -1.66537 35.855
lfingers 7.12502
lthumb 23.9943 64.3754
rfemur 3.98038 5.30138 15.638
rtibia 31.2218
rfoot 14.3673 8.3905
rtoes 0.449001
lfemur -30.6717 3.14242 -21.3914
ltibia 26.5268
lfoot -2.47614 -2.23224
ltoes 7.74451
53
root -2.85598 18.0164 17.0451 -169.828 7.1692 -179.153
lowerback 3.29872 0.263571 -1.75613
upperback -0.434117 0.363601 2.24681
thorax -2.32194 0.233048 3.2801
lowerneck -17.9957 -2.87949 -11.3709
upperneck 13.5671 -1.28946 2.45406
head 7.22449 -0.951129 2.49597
rclavicle -2.78299e-015 1.07344e-014
rhumerus -45.3674 -36.3634 -55.6386
rradius 40.9681
rwrist -23.8447
rhand -17.1076 19.9205
rfingers 7.12502
rthumb 9.13149 -9.86185
lclavicle -2.78299e-015 1.07344e-014
lhumerus -34.8239 17.8638 81.2924
lradius 27.7411
lwrist -11.7937
lhand -1.67433 35.9336
lfingers 7.12502
lthumb 23.9857 64.4552
rfemur 2.30945 5.2444 14.9645
rtibia 34.3223
rfoot 15.8095 8.50694
rtoes 1.15456
lfemur -29.9838 3.26099 -22.1447
ltibia 26.1135
lfoot -2.89623 -2.62693
ltoes 6.82994
54
root -2.89969 18.0398 16.8994 -170.087 7.03167 -179.571
lowerback 3.30239 0.166773 -2.34478
upperback -0.278461 0.20989 2.32137
thorax -2.15582 0.158996 3.69825
lowerneck -18.5216 -2.88923 -11.7041
upperneck 13.9661 -1.16096 2.59379
head 7.43993 -0.90327 2.61192
rclavicle -6.85807e-015 -2.26615e-014
rhumerus -45.3834 -36.6818 -54.9683
rradius 41.9067
rwrist -25.103
rhand -17.5721 19.9102
rfingers 7.12502
rthumb 8.68324 -9.89121
lclavicle -6.85807e-015 -2.26615e-014
lhumerus -34.6352 17.5965 81.5935
lradius 28.3626
lwrist -11.4481
lhand -1.69367 36.0406
lfingers 7.12502
lthumb 23.9672 64.5646
rfemur 0.897162 5.17332 14.3231
rtibia 37.3029
rfoot 17.1662 8.56304
rtoes 1.01625
lfemur -28.9733 3.36781 -22.8694
ltibia 25.6205
lfoot -3.05471 -3.05103
ltoes 6.48712
55
root -2.93877 18.0633 16.7556 -170.412 7.05889 -179.961
lowerback 3.47472 0.298511 -2.79339
upperback -0.0489039 0.355608 2.16796
thorax -2.03007 0.228203 3.7852
lowerneck -19.0607 -3.08071 -11.3703
upperneck 14.1132 -1.37241 2.25653
head 7.59089 -1.02111 2.41921
rclavicle 2.68359e-015 2.78299e-014
rhumerus -45.9017 -37.9078 -53.9698
rradius 42.9104
rwrist -26.1492
rhand -17.8384 20.705
rfingers 7.12502
rthumb 8.42628 -9.10687
lclavicle 2.68359e-015 2.78299e-014
lhumerus -33.9968 16.7537 81.843
lradius 28.7981
lwrist -11.0858
lhand -1.57673 36.1465
lfingers 7.12502
lthumb 24.0793 64.6557
rfemur -0.416278 5.41669 13.7605
rtibia 40.0988
rfoot 18.5511 8.09849
rtoes 2.19799
lfemur -27.8099 3.56198 -23.518
ltibia 25.0178
lfoot -3.16826 -3.36555
ltoes 6.48688
56
root -2.96907 18.0653 16.6321 -170.713 6.84769 -180.539
lowerback 3.91279 0.0421727 -3.57291
upperback -0.420038 -0.0387911 2.18066
thorax -2.62539 0.0564852 4.26503
lowerneck -17.4537 -2.76085 -11.3715
upperneck 13.5133 -1.07283 1.87639
head 7.10139 -0.890452 2.33151
rclavicle 1.59028e-014 -1.55052e-014
rhumerus -46.754 -37.6566 -52.9008
rradius 43.9192
rwrist -27.3768
rhand -18.1803 21.518
rfingers 7.12502
rthumb 8.09632 -8.30686
lclavicle 1.59028e-014 -1.55052e-014
lhumerus -34.8493 16.7894 81.5221
lradius 29.4387
lwrist -10.7718
lhand -1.65464 36.3135
lfingers 7.12502
lthumb 24.0046 64.8325
rfemur -1.73117 5.36616 13.1084
rtibia 42.8117
rfoot 18.8681 7.69843
rtoes 0.701051
lfemur -26.783 3.40826 -24.2878
ltibia 24.3902
lfoot -3.4955 -3.58448
ltoes 6.68132
57
root -3.00619 18.0671 16.5063 -171.084 5.79194 -181.185
lowerback 4.41946 -0.375167 -4.0451
upperback -0.491868 -0.646047 2.0475
thorax -2.92068 -0.234314 4.43872
lowerneck -17.3605 -2.58224 -11.105
upperneck 13.5031 -0.869614 1.65589
head 7.06616 -0.797663 2.23964
rclavicle 2.38542e-015 3.97569e-015
rhumerus -47.2457 -37.9716 -52.1798
rradius 45.1097
rwrist -28.7246
rhand -18.5385 21.347
rfingers 7.12502
rthumb 7.75061 -8.49092
lclavicle 2.38542e-015 3.97569e-015
lhumerus -34.9199 16.3761 81.3612
lradius 29.9296
lwrist -10.4743
lhand -1.77243 36.1053
lfingers 7.12502
lthumb 23.8916 64.6391
rfemur -2.69371 4.48685 12.5404
rtibia 45.4173
rfoot 18.4646 7.04285
rtoes -0.812923
lfemur -25.6896 2.46622 -25.0294
ltibia 23.7963
lfoot -3.76854 -3.81998
ltoes 7.49715
58
root -3.04304 18.0903 16.3859 -170.914 6.26863 -181.306
lowerback 4.16351 -0.239225 -4.35579
upperback -0.39826 -0.473802 2.00127
thorax -2.69654 -0.152439 4.55147
lowerneck -17.843 -2.48092 -10.9323
upperneck 13.6128 -0.709814 1.61297
head 7.17117 -0.720661 2.21515
rclavicle -7.65321e-015 1.66979e-014
rhumerus -47.2951 -38.725 -51.5749
rradius 46.2244
rwrist -29.6018
rhand -18.8251 20.9497
rfingers 7.12502
rthumb 7.47396 -8.89823
lclavicle -7.65321e-015 1.66979e-014
lhumerus -34.3608 16.0306 81.3169
lradius 30.2189
lwrist -10.3083
lhand -1.83154 35.7311
lfingers 7.12502
lthumb 23.835 64.2724
rfemur -4.63904 4.86287 12.1292
rtibia 47.9695
rfoot 17.8643 6.46903
rtoes -2.76079
lfemur -25.1286 2.6309 -25.3591
ltibia 23.2184
lfoot -3.81848 -3.62852
ltoes 7.71568
